# xmcd
#
# Track frame offsets: 
#        150
#        12668
#        35351
#        64593
#        79715
#        100944
#        119623
#        142959
#        158618
#        179219
#        197127
#        220658
#        242088
#        256035
#        280850
#        311531
#
# Disc length: 4612 seconds
#
# Revision: 2
# Processed by: cddbd v1.5.2PL0 Copyright (c) Steve Scherf et al.
# Submitted via: ExactAudioCopy v0.99pb4
#
DISCID=de120210
DTITLE=Hideaway - Live 76'51''
DYEAR=2004
DGENRE=Blues
TTITLE0=Two Bones And A Pick
TTITLE1=Bye Bye So Long
TTITLE2=I'll Play The Blues For You
TTITLE3=Nothing You Can Say
TTITLE4=Start It Up
TTITLE5=Back To New Orleans
TTITLE6=My Blues
TTITLE7=Lonesome Valley
TTITLE8=Can't Get No Rest
TTITLE9=Hideaway
TTITLE10=Death Valley
TTITLE11=Blue Hour
TTITLE12=Calling Home
TTITLE13=I Shall Not Be Moved
TTITLE14=Mustan Sally
TTITLE15=Party
EXTD=
EXTT0=
EXTT1=
EXTT2=
EXTT3=
EXTT4=
EXTT5=
EXTT6=
EXTT7=
EXTT8=
EXTT9=
EXTT10=
EXTT11=
EXTT12=
EXTT13=
EXTT14=
EXTT15=
PLAYORDER=
